<?xml version="1.0" encoding="UTF-8" standalone="no"?>
<!DOCTYPE svg PUBLIC "-//W3C//DTD SVG 1.1//EN" "http://www.w3.org/Graphics/SVG/1.1/DTD/svg11.dtd">
<svg width="100%" height="100%" viewBox="0 0 512 512" version="1.1" xmlns="http://www.w3.org/2000/svg" xmlns:xlink="http://www.w3.org/1999/xlink" xml:space="preserve" xmlns:serif="http://www.serif.com/" style="fill-rule:evenodd;clip-rule:evenodd;stroke-linejoin:round;stroke-miterlimit:2;">
    <g transform="matrix(1,0,0,1,-2173.6,-1202.69)">
        <g transform="matrix(1,0,0,1,2173.6,1202.69)">
            <rect id="empirical-icon" x="0" y="0" width="512" height="512" style="fill:none;"/>
            <g id="empirical-icon1" serif:id="empirical-icon">
                <g transform="matrix(0.573214,0,0,0.573214,-1272.26,-594.943)">
                    <g transform="matrix(1,0,0,1,0,24.01)">
                        <g transform="matrix(1.33929,0,0,1.33929,-824.207,-495.538)">
                            <path d="M2502.94,1534L2470.65,1534L2457.81,1500.61L2399.05,1500.61L2386.92,1534L2355.43,1534L2412.69,1387L2444.08,1387L2502.94,1534ZM2448.29,1475.84L2428.03,1421.29L2408.18,1475.84L2448.29,1475.84Z" style="fill:rgb(90,90,90);fill-rule:nonzero;"/>
                        </g>
                        <g transform="matrix(1.33929,0,0,1.33929,-989.128,-495.538)">
                            <path d="M2853.69,1387L2912.45,1387C2924.08,1387 2932.76,1387.49 2938.47,1388.45C2944.19,1389.42 2949.3,1391.44 2953.81,1394.52C2958.33,1397.6 2962.09,1401.69 2965.09,1406.8C2968.1,1411.92 2969.61,1417.65 2969.61,1424C2969.61,1430.89 2967.75,1437.2 2964.04,1442.95C2960.33,1448.7 2955.3,1453.01 2948.95,1455.89C2957.91,1458.5 2964.79,1462.94 2969.61,1469.22C2974.42,1475.51 2976.83,1482.89 2976.83,1491.38C2976.83,1498.07 2975.27,1504.57 2972.16,1510.89C2969.05,1517.2 2964.81,1522.25 2959.43,1526.03C2954.05,1529.81 2947.41,1532.13 2939.52,1533C2934.58,1533.53 2922.64,1533.87 2903.73,1534L2853.69,1534L2853.69,1387ZM2883.37,1411.47L2883.37,1445.46L2902.82,1445.46C2914.39,1445.46 2921.58,1445.29 2924.38,1444.96C2929.46,1444.36 2933.46,1442.6 2936.37,1439.69C2939.27,1436.79 2940.73,1432.96 2940.73,1428.21C2940.73,1423.67 2939.47,1419.97 2936.97,1417.13C2934.46,1414.29 2930.73,1412.57 2925.79,1411.97C2922.85,1411.63 2914.39,1411.47 2900.42,1411.47L2883.37,1411.47ZM2883.37,1469.93L2883.37,1509.23L2910.85,1509.23C2921.54,1509.23 2928.33,1508.93 2931.2,1508.33C2935.61,1507.53 2939.21,1505.57 2941.98,1502.46C2944.76,1499.36 2946.14,1495.19 2946.14,1489.98C2946.14,1485.57 2945.07,1481.83 2942.93,1478.75C2940.79,1475.67 2937.7,1473.43 2933.66,1472.03C2929.61,1470.63 2920.84,1469.93 2907.34,1469.93L2883.37,1469.93Z" style="fill:rgb(90,90,90);fill-rule:nonzero;"/>
                        </g>
                    </g>
                    <g transform="matrix(0.73268,0,0,0.73268,711.867,411.464)">
                        <g transform="matrix(1,0,0,1,0,-16.2043)">
                            <path d="M2597.19,1534L2554.28,1427.51L2583.86,1427.51L2603.91,1481.86L2609.73,1500.01C2611.26,1495.39 2612.23,1492.35 2612.63,1490.88C2613.57,1487.87 2614.57,1484.87 2615.64,1481.86L2635.9,1427.51L2664.88,1427.51L2622.56,1534L2597.19,1534Z" style="fill:rgb(90,90,90);fill-rule:nonzero;"/>
                        </g>
                        <g transform="matrix(1,0,0,1,0,-16.2043)">
                            <path d="M2672.2,1503.62L2700.47,1499.31C2701.68,1504.79 2704.12,1508.95 2707.79,1511.79C2711.47,1514.63 2716.62,1516.05 2723.24,1516.05C2730.52,1516.05 2736,1514.71 2739.68,1512.04C2742.15,1510.17 2743.39,1507.66 2743.39,1504.52C2743.39,1502.38 2742.72,1500.61 2741.39,1499.2C2739.98,1497.87 2736.84,1496.63 2731.96,1495.5C2709.23,1490.48 2694.83,1485.9 2688.74,1481.76C2680.32,1476.01 2676.11,1468.02 2676.11,1457.79C2676.11,1448.57 2679.75,1440.81 2687.04,1434.53C2694.32,1428.25 2705.62,1425.1 2720.93,1425.1C2735.5,1425.1 2746.33,1427.48 2753.42,1432.22C2760.5,1436.97 2765.38,1443.99 2768.06,1453.28L2741.49,1458.19C2740.35,1454.05 2738.19,1450.87 2735.02,1448.67C2731.84,1446.46 2727.31,1445.36 2721.43,1445.36C2714.01,1445.36 2708.7,1446.39 2705.49,1448.47C2703.35,1449.94 2702.28,1451.84 2702.28,1454.18C2702.28,1456.19 2703.21,1457.89 2705.09,1459.3C2707.63,1461.17 2716.4,1463.81 2731.41,1467.22C2746.41,1470.63 2756.89,1474.81 2762.84,1479.75C2768.73,1484.77 2771.67,1491.75 2771.67,1500.71C2771.67,1510.47 2767.59,1518.86 2759.43,1525.88C2751.28,1532.9 2739.21,1536.41 2723.24,1536.41C2708.73,1536.41 2697.25,1533.47 2688.79,1527.58C2680.34,1521.7 2674.8,1513.71 2672.2,1503.62Z" style="fill:rgb(90,90,90);fill-rule:nonzero;"/>
                        </g>
                    </g>
                </g>
            </g>
        </g>
    </g>
</svg>
