<?xml version="1.0" encoding="UTF-8" standalone="no"?>
<!DOCTYPE svg PUBLIC "-//W3C//DTD SVG 1.1//EN" "http://www.w3.org/Graphics/SVG/1.1/DTD/svg11.dtd">
<svg width="100%" height="100%" viewBox="0 0 512 512" version="1.1" xmlns="http://www.w3.org/2000/svg" xmlns:xlink="http://www.w3.org/1999/xlink" xml:space="preserve" xmlns:serif="http://www.serif.com/" style="fill-rule:evenodd;clip-rule:evenodd;stroke-linejoin:round;stroke-miterlimit:2;">
    <g transform="matrix(1,0,0,1,-2775.49,-1202.69)">
        <g transform="matrix(1,0,0,1,2775.49,1202.69)">
            <rect id="debug-icon" x="0" y="0" width="512" height="512" style="fill:none;"/>
            <g id="debug-icon1" serif:id="debug-icon">
                <g transform="matrix(0.657388,0,0,0.657388,96.6085,87.2617)">
                    <g transform="matrix(1,0,0,1,2.92726,0)">
                        <g>
                            <g transform="matrix(1.24266,0,0,1,-3497.08,-1154.35)">
                                <path d="M3126.14,1370.99C3116.66,1374.93 3106.39,1368.56 3103.22,1356.77C3100.05,1344.98 3105.18,1332.21 3114.66,1328.28L3182.99,1299.91C3192.48,1295.97 3202.75,1302.35 3205.92,1314.13C3209.09,1325.92 3203.96,1338.69 3194.47,1342.62L3126.14,1370.99Z" style="fill:rgb(90,90,90);"/>
                            </g>
                            <g transform="matrix(1.23635,0,0,-1,-3491.71,1751.02)">
                                <path d="M3120.55,1360.49C3112.73,1368.31 3111.52,1382.5 3117.84,1392.16C3124.16,1401.82 3135.64,1403.32 3143.45,1395.51L3200.19,1338.78C3208,1330.96 3209.22,1316.77 3202.89,1307.11C3196.57,1297.44 3185.1,1295.94 3177.28,1303.76L3120.55,1360.49Z" style="fill:rgb(90,90,90);"/>
                            </g>
                            <g transform="matrix(0.707107,-0.707107,-0.707107,-0.707107,-842.509,3485.48)">
                                <path d="M3116.08,1362.08C3107.29,1370.87 3107.29,1385.13 3116.08,1393.92C3124.87,1402.71 3139.14,1402.71 3147.92,1393.92L3204.66,1337.19C3213.44,1328.4 3213.44,1314.13 3204.66,1305.35C3195.87,1296.56 3181.6,1296.56 3172.81,1305.35L3116.08,1362.08Z" style="fill:rgb(90,90,90);"/>
                            </g>
                        </g>
                        <g transform="matrix(-1,0,0,1,501.884,-0.542814)">
                            <g transform="matrix(1.24266,0,0,1,-3497.08,-1154.35)">
                                <path d="M3126.14,1370.99C3116.66,1374.93 3106.39,1368.56 3103.22,1356.77C3100.05,1344.98 3105.18,1332.21 3114.66,1328.28L3182.99,1299.91C3192.48,1295.97 3202.75,1302.35 3205.92,1314.13C3209.09,1325.92 3203.96,1338.69 3194.47,1342.62L3126.14,1370.99Z" style="fill:rgb(90,90,90);"/>
                            </g>
                            <g transform="matrix(1.23635,0,0,-1,-3491.71,1751.02)">
                                <path d="M3120.55,1360.49C3112.73,1368.31 3111.52,1382.5 3117.84,1392.16C3124.16,1401.82 3135.64,1403.32 3143.45,1395.51L3200.19,1338.78C3208,1330.96 3209.22,1316.77 3202.89,1307.11C3196.57,1297.44 3185.1,1295.94 3177.28,1303.76L3120.55,1360.49Z" style="fill:rgb(90,90,90);"/>
                            </g>
                            <g transform="matrix(0.707107,-0.707107,-0.707107,-0.707107,-842.509,3485.48)">
                                <path d="M3116.08,1362.08C3107.29,1370.87 3107.29,1385.13 3116.08,1393.92C3124.87,1402.71 3139.14,1402.71 3147.92,1393.92L3204.66,1337.19C3213.44,1328.4 3213.44,1314.13 3204.66,1305.35C3195.87,1296.56 3181.6,1296.56 3172.81,1305.35L3116.08,1362.08Z" style="fill:rgb(90,90,90);"/>
                            </g>
                        </g>
                    </g>
                    <g transform="matrix(0.707107,0.707107,0.707107,-0.707107,-2933.05,-1009.41)">
                        <path d="M3102.15,1372.13C3092.29,1381.99 3092.29,1397.99 3102.15,1407.85C3112.01,1417.71 3128.01,1417.71 3137.87,1407.85L3304.42,1241.31C3314.28,1231.45 3314.28,1215.44 3304.42,1205.58C3294.56,1195.73 3278.55,1195.73 3268.69,1205.58L3102.15,1372.13Z" style="fill:rgb(90,90,90);"/>
                    </g>
                    <g transform="matrix(1.20094,0,0,1.20094,-3386.79,-1485.8)">
                        <path d="M3127.46,1364.04C3157.93,1391.31 3166.08,1435.42 3166.08,1485.16C3166.08,1567.88 3106.57,1635.04 3033.27,1635.04C2959.97,1635.04 2900.46,1567.88 2900.46,1485.16C2900.46,1435.75 2908.5,1391.89 2938.48,1364.58C2940.17,1322.38 2981.87,1282.35 3032.98,1282.35C3083.87,1282.35 3125.43,1322.04 3127.46,1364.04ZM2954.02,1403.43C2939.89,1424.25 2937.96,1453.59 2937.96,1485.16C2937.96,1546.03 2979.33,1597.54 3033.27,1597.54C3087.2,1597.54 3128.58,1546.03 3128.58,1485.16C3128.58,1453.43 3126.66,1423.9 3112.33,1403.09C3095.47,1417.99 3066.21,1423.16 3032.98,1423.16C3000,1423.16 2970.94,1418.07 2954.02,1403.43ZM2975.95,1366.09C2975.93,1366.47 2975.92,1366.86 2975.92,1367.25C2975.92,1374.95 2982.01,1378.01 2989,1380.33C3001.31,1384.43 3016.55,1385.66 3032.98,1385.66C3049.41,1385.66 3064.65,1384.43 3076.96,1380.33C3083.95,1378.01 3090.04,1374.95 3090.04,1367.25C3090.04,1366.78 3090.03,1366.31 3090,1365.85C3088.81,1341.21 3062.83,1319.85 3032.98,1319.85C3003.02,1319.85 2976.94,1341.35 2975.95,1366.09Z" style="fill:rgb(90,90,90);"/>
                    </g>
                </g>
            </g>
        </g>
    </g>
</svg>
