<?xml version="1.0" encoding="UTF-8" standalone="no"?>
<!DOCTYPE svg PUBLIC "-//W3C//DTD SVG 1.1//EN" "http://www.w3.org/Graphics/SVG/1.1/DTD/svg11.dtd">
<svg width="100%" height="100%" viewBox="0 0 512 512" version="1.1" xmlns="http://www.w3.org/2000/svg" xmlns:xlink="http://www.w3.org/1999/xlink" xml:space="preserve" xmlns:serif="http://www.serif.com/" style="fill-rule:evenodd;clip-rule:evenodd;stroke-linejoin:round;stroke-miterlimit:2;">
    <g transform="matrix(1,0,0,1,-1605.95,0)">
        <g transform="matrix(1,0,0,1,1605.95,0)">
            <rect id="ArtBoard1" x="0" y="0" width="512" height="512" style="fill:none;"/>
            <g id="ArtBoard11" serif:id="ArtBoard1">
                <g transform="matrix(0.92362,0,0,0.92362,35.5361,21.0819)">
                    <g transform="matrix(4.95121,0,0,4.95121,-65.7002,-49.0211)">
                        <path d="M96.329,23.14C98.261,23.14 99.829,24.708 99.829,26.64C99.829,28.572 98.261,30.14 96.329,30.14C96.329,30.14 30.229,30.14 30.229,30.14L30.229,92.74L92.829,92.74L92.829,71.748C92.829,69.816 94.397,68.248 96.329,68.248C98.261,68.248 99.829,69.816 99.829,71.748L99.829,96.24C99.829,98.173 98.262,99.74 96.329,99.74L26.729,99.74C24.796,99.74 23.229,98.173 23.229,96.24L23.229,26.64C23.229,24.707 24.796,23.14 26.729,23.14L96.329,23.14Z" style="fill:rgb(90,90,90);"/>
                    </g>
                    <g transform="matrix(4.95121,0,0,4.95121,-65.7002,-49.0211)">
                        <path d="M40.583,61.206C39.217,59.84 39.217,57.622 40.583,56.256C41.949,54.89 44.167,54.89 45.533,56.256L64.931,75.654L102.615,37.97C103.981,36.604 106.199,36.604 107.564,37.97C108.93,39.336 108.93,41.553 107.565,42.919L67.406,83.079C66.75,83.735 65.859,84.104 64.931,84.104C64.003,84.104 63.113,83.735 62.456,83.079L40.583,61.206Z" style="fill:rgb(90,90,90);"/>
                    </g>
                </g>
            </g>
        </g>
    </g>
</svg>
